{"title":"Rickie Lee Jones - The Magazine FLAC","uid":4847077,"size":226796769,"categoryP":"audio","categoryS":"flac","magnet":"?xt=urn:btih:a469495e91577a93953e6a1525dd2d6f28d7347c&amp;dn=Rickie+Lee+Jones+-+The+Magazine+FLAC&amp;tr=udp%3A%2F%2Ftracker.openbittorrent.com%3A80&amp;tr=udp%3A%2F%2Fopen.demonii.com%3A1337&amp;tr=udp%3A%2F%2Ftracker.coppersurfer.tk%3A6969&amp;tr=udp%3A%2F%2Fexodus.desync.com%3A6969","seeders":2,"leechers":0,"uploader":null,"files":12,"time":1239727005,"description":"REM GENRE Jazz\nREM DATE 1984\nREM DISCID 7E0A1A0A\nREM COMMENT &quot;ExactAudioCopy v0.99pb3&quot;\nPERFORMER &quot;Rickie Lee Jones&quot;\nTITLE &quot;The Magazine&quot;\nFILE &quot;Range.wav&quot; WAVE\n  TRACK 01 AUDIO\n    TITLE &quot;Prelude To Gravity&quot;\n    PERFORMER &quot;Rickie Lee Jones&quot;\n    INDEX 00 00:00:00\n    INDEX 01 00:00:33\n  TRACK 02 AUDIO\n    TITLE &quot;Gravity&quot;\n    PERFORMER &quot;Rickie Lee Jones&quot;\n    INDEX 01 02:50:05\n  TRACK 03 AUDIO\n    TITLE &quot;Juke Box Fury&quot;\n    PERFORMER &quot;Rickie Lee Jones&quot;\n    INDEX 00 07:34:49\n    INDEX 01 07:38:43\n  TRACK 04 AUDIO\n    TITLE &quot;It Must Be Love&quot;\n    PERFORMER &quot;Rickie Lee Jones&quot;\n    INDEX 00 11:50:25\n    INDEX 01 11:51:33\n  TRACK 05 AUDIO\n    TITLE &quot;Magazine&quot;\n    PERFORMER &quot;Rickie Lee Jones&quot;\n    INDEX 00 16:47:20\n    INDEX 01 16:50:70\n  TRACK 06 AUDIO\n    TITLE &quot;The Real End&quot;\n    PERFORMER &quot;Rickie Lee Jones&quot;\n    INDEX 00 21:33:05\n    INDEX 01 21:36:38\n  TRACK 07 AUDIO\n    TITLE &quot;Deep Space&quot;\n    PERFORMER &quot;Rickie Lee Jones&quot;\n    INDEX 00 26:36:73\n    INDEX 01 26:40:45\n  TRACK 08 AUDIO\n    TITLE &quot;Runaround&quot;\n    PERFORMER &quot;Rickie Lee Jones&quot;\n    INDEX 00 29:51:50\n    INDEX 01 29:54:25\n  TRACK 09 AUDIO\n    TITLE &quot;Rorschachs/Theme For The Pope&quot;\n    PERFORMER &quot;Rickie Lee Jones&quot;\n    INDEX 00 34:51:08\n    INDEX 01 34:54:10\n  TRACK 10 AUDIO\n    TITLE &quot;The Unsigned Painting/The Weird Beast&quot;\n    PERFORMER &quot;Rickie Lee Jones&quot;\n    INDEX 00 38:13:05\n    INDEX 01 38:15:03\n","torrent":{"xt":"urn:btih:a469495e91577a93953e6a1525dd2d6f28d7347c","amp;dn":"Rickie+Lee+Jones+-+The+Magazine+FLAC","amp;tr":["udp%3A%2F%2Ftracker.openbittorrent.com%3A80","udp%3A%2F%2Fopen.demonii.com%3A1337","udp%3A%2F%2Ftracker.coppersurfer.tk%3A6969","udp%3A%2F%2Fexodus.desync.com%3A6969"],"infoHash":"a469495e91577a93953e6a1525dd2d6f28d7347c","infoHashBuffer":{"type":"Buffer","data":[164,105,73,94,145,87,122,147,149,62,106,21,37,221,45,111,40,215,52,124]},"announce":[],"urlList":[]}}